HIERARCHY
ROOT Hips
{
	OFFSET 0.000000 0.000000 0.000000
	CHANNELS 6 Xposition Yposition Zposition Zrotation Yrotation Xrotation 
	JOINT LHipJoint
	{
		OFFSET 0.000000 0.000000 0.000000
		CHANNELS 3 Zrotation Yrotation Xrotation
		JOINT LeftUpLeg
		{
			OFFSET 1.363060 -1.794630 0.839290
			CHANNELS 3 Zrotation Yrotation Xrotation
			JOINT LeftLeg
			{
				OFFSET 2.448110 -6.726130 0.000000
				CHANNELS 3 Zrotation Yrotation Xrotation
				JOINT LeftFoot
				{
					OFFSET 2.562200 -7.039590 0.000000
					CHANNELS 3 Zrotation Yrotation Xrotation
					JOINT LeftToeBase
					{
						OFFSET 0.157640 -0.433110 2.322550
						CHANNELS 3 Zrotation Yrotation Xrotation
						End Site
						{
							OFFSET 0.000000 0.000000 0.000000
						}
					}
				}
			}
		}
	}
	JOINT RHipJoint
	{
		OFFSET 0.000000 0.000000 0.000000
		CHANNELS 3 Zrotation Yrotation Xrotation
		JOINT RightUpLeg
		{
			OFFSET -1.305520 -1.794630 0.839290
			CHANNELS 3 Zrotation Yrotation Xrotation
			JOINT RightLeg
			{
				OFFSET -2.542530 -6.985550 0.000000
				CHANNELS 3 Zrotation Yrotation Xrotation
				JOINT RightFoot
				{
					OFFSET -2.568260 -7.056230 0.000000
					CHANNELS 3 Zrotation Yrotation Xrotation
					JOINT RightToeBase
					{
						OFFSET -0.164730 -0.452590 2.363150
						CHANNELS 3 Zrotation Yrotation Xrotation
						End Site
						{
							OFFSET 0.000000 0.000000 0.000000
						}
					}
				}
			}
		}
	}
}
MOTION
Frames: 22
Frame Time: 0.008333
-4.215803 17.196765 -0.663223 -179.010557 85.390344 -149.217890 -11.651511 0.548614 -5.135839 -14.432715 13.083856 -35.591695 -2.180521 2.857139 42.350780 0.573349 2.154333 -3.055863 0.183900 0.000000 -57.144199 7.457255 0.858208 -2.087034 17.059599 -5.732068 -60.504507 4.111933 -3.280794 32.537782 -0.177853 0.869115 -4.427712 -0.275000 -0.000000 -60.203900
-4.001264 17.269407 -0.655871 -178.522614 85.127342 -148.489250 -11.788600 0.517107 -5.272179 -13.946547 13.807163 -35.886319 -2.072828 2.988081 43.059315 0.637147 2.672739 -1.444949 0.291100 -0.000000 -55.726900 7.314415 0.745102 -1.761735 17.371041 -5.264573 -59.459399 4.478460 -2.674712 28.248499 -0.128289 0.904326 -3.845601 -0.322100 0.000001 -61.220200
-3.787890 17.331958 -0.647358 -178.714727 84.840741 -148.472398 -11.886295 0.484879 -5.428320 -13.557696 14.483349 -36.208934 -1.968073 3.126423 43.989037 0.769912 3.676452 -0.345238 0.449400 -0.000000 -53.270300 7.205748 0.699683 -1.453496 17.475817 -4.851307 -58.401769 4.764887 -2.060816 24.250863 -0.122114 0.749324 -3.383472 -0.389500 0.000000 -62.166300
-3.576258 17.383499 -0.638243 -179.338663 84.542617 -148.928089 -11.950420 0.452362 -5.601933 -13.247729 15.123919 -36.556555 -1.867987 3.275211 45.150870 0.960503 5.100057 0.212452 0.658400 0.000000 -49.822200 7.128904 0.712938 -1.174477 17.400013 -4.491167 -57.376392 4.960220 -1.473378 20.688616 -0.165924 0.394857 -3.074256 -0.479900 0.000000 -62.746900
-3.366612 17.423534 -0.628662 179.665797 84.237467 -149.801888 -11.983376 0.423302 -5.787262 -13.010010 15.716822 -36.916630 -1.772270 3.435344 46.538790 1.197501 6.844290 0.236262 0.887400 0.000000 -45.443500 7.085881 0.774833 -0.938590 17.174036 -4.213042 -56.415183 5.068010 -0.942438 17.643556 -0.255721 -0.126449 -2.923102 -0.587800 -0.000000 -62.994701
-3.159174 17.451507 -0.618741 178.413501 83.929917 -150.979792 -11.991742 0.399095 -5.979033 -12.826938 16.257504 -37.286430 -1.678907 3.608470 48.144068 1.465918 8.769003 -0.216464 1.085600 -0.000000 -40.440900 7.074630 0.870247 -0.751548 16.831610 -4.018721 -55.542720 5.097432 -0.492013 15.176136 -0.385611 -0.780695 -2.919564 -0.706100 0.000000 -62.840600
-2.953791 17.467144 -0.608603 176.963152 83.617682 -152.403222 -11.981937 0.382764 -6.168468 -12.682442 16.728822 -37.658144 -1.583932 3.794348 49.950390 1.748517 10.727032 -1.060552 1.201400 -0.000000 -35.084100 7.094373 0.984267 -0.622183 16.429634 -3.943297 -54.763526 5.069243 -0.133597 13.268344 -0.537906 -1.498717 -2.998396 -0.824600 0.000001 -62.625200
-2.750446 17.469781 -0.598047 175.415205 83.304715 -153.960623 -11.962520 0.373615 -6.350517 -12.557299 17.127041 -38.042438 -1.481052 3.993364 51.941932 2.025150 12.574393 -2.144563 1.207800 -0.000000 -30.087400 7.140137 1.103864 -0.539658 15.976442 -3.941776 -54.091087 4.992627 0.125773 11.934243 -0.707580 -2.262187 -3.132168 -0.940799 0.000000 -62.115201
-2.548890 17.459120 -0.586974 173.804921 82.990006 -155.611909 -11.939614 0.373170 -6.518840 -12.439802 17.441436 -38.438278 -1.364062 4.203666 54.099767 2.276043 14.194748 -3.334411 1.104200 0.000000 -25.837701 7.209442 1.220075 -0.501667 15.497968 -4.014011 -53.525629 4.882939 0.286430 11.140087 -0.879206 -3.016227 -3.264177 -1.050001 0.000000 -61.433599
-2.348669 17.434742 -0.575312 172.164797 82.673191 -157.307597 -11.917679 0.381772 -6.665342 -12.328385 17.660339 -38.864191 -1.227163 4.422450 56.408926 2.484335 15.503525 -4.510663 0.915800 0.000000 -22.590900 7.298766 1.325175 -0.495948 15.008118 -4.138574 -53.084029 4.751848 0.352989 10.849231 -1.041065 -3.722258 -3.347884 -1.152400 -0.000000 -60.657301
-2.149439 17.396395 -0.562983 170.516462 82.356378 -159.012520 -11.899362 0.399065 -6.785212 -12.226334 17.781648 -39.335112 -1.066963 4.646262 58.851000 2.637730 16.446163 -5.595586 0.677600 0.000000 -20.324400 7.403870 1.414897 -0.510591 14.511191 -4.289582 -52.794077 4.607272 0.328086 11.057976 -1.184080 -4.341326 -3.378317 -1.244499 -0.000000 -59.717600
-1.951196 17.344429 -0.550321 168.908476 82.042422 -160.684823 -11.888473 0.423861 -6.878080 -12.123853 17.816749 -39.835510 -0.881941 4.870891 61.391719 2.729152 16.998417 -6.527938 0.430100 0.000000 -19.027700 7.518977 1.487881 -0.551358 14.039018 -4.484661 -52.657181 4.461280 0.215520 11.752323 -1.292735 -4.805356 -3.361975 -1.315001 -0.000000 -58.682600
-1.753781 17.279090 -0.537651 167.366310 81.735326 -162.287724 -11.885513 0.453448 -6.941008 -12.024925 17.769765 -40.376201 -0.671947 5.091848 64.002320 2.758955 17.170628 -7.281420 0.205600 -0.000000 -18.549400 7.638367 1.543918 -0.610483 13.601306 -4.708943 -52.711552 4.318873 0.017931 12.948793 -1.362513 -5.081921 -3.347465 -1.352600 -0.000000 -57.470900
-1.557274 17.201060 -0.525418 165.918987 81.439026 -163.792176 -11.890906 0.484627 -6.974069 -11.926702 17.651059 -40.950702 -0.438407 5.304755 66.647195 2.732999 17.001001 -7.847849 0.025500 0.000000 -18.759600 7.756547 1.585565 -0.690399 13.218764 -4.972836 -52.981131 4.185232 -0.262041 14.662167 -1.388535 -5.134543 -3.400484 -1.341500 -0.000000 -56.037200
-1.362029 17.111468 -0.514251 164.584400 81.155331 -165.192110 -11.904533 0.514584 -6.980940 -11.823020 17.474059 -41.534236 -0.184536 5.505646 69.287552 2.661953 16.552549 -8.246340 -0.104600 0.000000 -19.473700 7.869396 1.618595 -0.803155 12.915868 -5.310437 -53.469008 4.064502 -0.620991 16.898581 -1.367076 -4.931724 -3.599614 -1.266000 -0.000000 -54.339500
-1.168161 17.010811 -0.504373 163.379163 80.888264 -166.448813 -11.924241 0.536510 -6.962085 -11.722290 17.242970 -42.155430 0.087410 5.692583 71.907797 2.561273 15.912555 -8.506526 -0.188400 -0.000000 -20.561600 7.972619 1.647060 -0.929672 12.665581 -5.663403 -54.221074 3.943287 -1.054250 19.691853 -1.318255 -4.543613 -4.034999 -1.131500 0.000000 -52.203700
-0.976459 16.901028 -0.496529 162.317926 80.635111 -167.578255 -11.950563 0.548463 -6.928614 -11.609025 16.976583 -42.760978 0.371768 5.864275 74.471329 2.446436 15.174125 -8.688376 -0.242800 -0.000001 -21.752300 8.065202 1.680181 -1.094385 12.493601 -6.094268 -55.172805 3.823583 -1.547421 22.968290 -1.241742 -3.970743 -4.750124 -0.941501 0.000000 -49.698800
-0.787505 16.783658 -0.491129 161.439151 80.397521 -168.541577 -11.983511 0.544831 -6.889072 -11.475656 16.686977 -43.347783 0.664367 6.022375 76.963943 2.333381 14.434397 -8.850281 -0.284101 0.000000 -22.848900 8.145059 1.722105 -1.292325 12.385209 -6.574653 -56.281514 3.694789 -2.080516 26.648484 -1.157486 -3.304712 -5.769470 -0.721300 0.000001 -46.830800
-0.601905 16.660589 -0.488677 160.802130 80.179591 -169.281297 -12.024062 0.520747 -6.853343 -11.308247 16.387827 -43.911414 0.961215 6.170663 79.374614 2.235329 13.778543 -9.048400 -0.326899 -0.000000 -23.683700 8.210306 1.774174 -1.518882 12.331797 -7.072792 -57.476402 3.549769 -2.627154 30.602414 -1.084885 -2.642799 -7.078665 -0.498400 0.000000 -43.718800
-0.420293 16.534063 -0.489741 160.481701 79.988726 -169.724128 -12.073629 0.472427 -6.830524 -11.088897 16.092694 -44.450332 1.259054 6.314183 81.694381 2.161453 13.269472 -9.325488 -0.381700 0.000000 -24.159900 8.259125 1.833844 -1.770211 12.333580 -7.555244 -58.672927 3.386281 -3.160371 34.677454 -1.040129 -2.071948 -8.634003 -0.293100 -0.000000 -40.565100
-0.243089 16.406444 -0.494773 160.550588 79.834441 -169.795325 -12.133164 0.397733 -6.826741 -10.801237 15.812933 -44.971053 1.555504 6.458286 83.915979 2.116512 12.942227 -9.707003 -0.455400 -0.000000 -24.256200 8.290042 1.895826 -2.041230 12.395006 -7.986396 -59.792749 3.206251 -3.657397 38.724598 -1.034818 -1.659282 -10.375504 -0.112500 -0.000000 -37.621400
-0.070596 16.280145 -0.504159 161.057031 79.723088 -169.447239 -12.202997 0.296915 -6.844972 -10.434391 15.555956 -45.478248 1.848721 6.607131 86.030706 2.100815 12.801478 -10.201463 -0.552200 0.000000 -24.005300 8.302576 1.954322 -2.331027 12.524592 -8.350474 -60.766825 3.016143 -4.103205 42.616686 -1.072518 -1.434568 -12.238453 0.049600 0.000000 -35.119700
